<?xml version="1.0" ?><svg height="32" id="svg2" overflow="visible" style="fill-rule:evenodd;stroke-width:0.50099999;stroke-linejoin:bevel;overflow:visible" version="1.1" viewBox="0 0 25.600005 25.600001" width="32" xmlns="http://www.w3.org/2000/svg" xmlns:cc="http://creativecommons.org/ns#" xmlns:dc="http://purl.org/dc/elements/1.1/" xmlns:inkscape="http://www.inkscape.org/namespaces/inkscape" xmlns:rdf="http://www.w3.org/1999/02/22-rdf-syntax-ns#" xmlns:sodipodi="http://sodipodi.sourceforge.net/DTD/sodipodi-0.dtd" xmlns:svg="http://www.w3.org/2000/svg" xmlns:xlink="http://www.w3.org/1999/xlink"><script id="script3301" xlink:href=""/><script id="script3299" xlink:href=""/><defs id="defs4"><marker id="DefaultArrow2" markerHeight="1" markerUnits="strokeWidth" markerWidth="1" orient="auto" overflow="visible" style="overflow:visible" viewBox="0 0 1 1"><g id="g7" transform="scale(0.00925926,0.00925926)"><path d="M -9,54 -9,-54 117,0 z" id="path9"/></g></marker><marker id="DefaultArrow3" markerHeight="1" markerUnits="strokeWidth" markerWidth="1" orient="auto" overflow="visible" style="overflow:visible" viewBox="0 0 1 1"><g id="g12" transform="scale(0.00925926,0.00925926)"><path d="M -27,54 -9,0 -27,-54 135,0 z" id="path14"/></g></marker><marker id="DefaultArrow4" markerHeight="1" markerUnits="strokeWidth" markerWidth="1" orient="auto" overflow="visible" style="overflow:visible" viewBox="0 0 1 1"><g id="g17" transform="scale(0.00925926,0.00925926)"><path d="M -9,0 -9,-45 C -9,-51.708 2.808,-56.58 9,-54 L 117,-9 C 120.916,-7.369 126,-4.242 126,0 126,4.242 120.916,7.369 117,9 L 9,54 C 2.808,56.58 -9,51.708 -9,45 z" id="path19"/></g></marker><marker id="DefaultArrow5" markerHeight="1" markerUnits="strokeWidth" markerWidth="1" orient="auto" overflow="visible" style="overflow:visible" viewBox="0 0 1 1"><g id="g22" transform="scale(0.00925926,0.00925926)"><path d="M -54,0 C -54,29.807 -29.807,54 0,54 29.807,54 54,29.807 54,0 54,-29.807 29.807,-54 0,-54 -29.807,-54 -54,-29.807 -54,0 z" id="path24"/></g></marker><marker id="DefaultArrow6" markerHeight="1" markerUnits="strokeWidth" markerWidth="1" orient="auto" overflow="visible" style="overflow:visible" viewBox="0 0 1 1"><g id="g27" transform="scale(0.00925926,0.00925926)"><path d="M -63,0 0,63 63,0 0,-63 z" id="path29"/></g></marker><marker id="DefaultArrow7" markerHeight="1" markerUnits="strokeWidth" markerWidth="1" orient="auto" overflow="visible" style="overflow:visible" viewBox="0 0 1 1"><g id="g32" transform="scale(0.00925926,0.00925926)"><path d="M 18,-54 108,-54 63,0 108,54 18,54 -36,0 z" id="path34"/></g></marker><marker id="DefaultArrow8" markerHeight="1" markerUnits="strokeWidth" markerWidth="1" orient="auto" overflow="visible" style="overflow:visible" viewBox="0 0 1 1"><g id="g37" transform="scale(0.00925926,0.00925926)"><path d="M -36,0 18,-54 54,-54 18,-18 27,-18 63,-54 99,-54 63,-18 72,-18 108,-54 144,-54 90,0 144,54 108,54 72,18 63,18 99,54 63,54 27,18 18,18 54,54 18,54 z" id="path39"/></g></marker><marker id="DefaultArrow9" markerHeight="1" markerUnits="strokeWidth" markerWidth="1" orient="auto" overflow="visible" style="overflow:visible" viewBox="0 0 1 1"><g id="g42" transform="scale(0.00925926,0.00925926)"><path d="M 0,45 -45,0 0,-45 45,0 z M 0,63 -63,0 0,-63 63,0 z" id="path44"/></g></marker><filter color-interpolation-filters="sRGB" id="StainedFilter"><feBlend id="feBlend47" in="SourceGraphic" in2="BackgroundImage" mode="multiply" result="blend"/><feComposite id="feComposite49" in="blend" in2="SourceAlpha" operator="in" result="comp"/></filter><filter color-interpolation-filters="sRGB" id="BleachFilter"><feBlend id="feBlend52" in="SourceGraphic" in2="BackgroundImage" mode="screen" result="blend"/><feComposite id="feComposite54" in="blend" in2="SourceAlpha" operator="in" result="comp"/></filter><filter color-interpolation-filters="sRGB" id="InvertTransparencyBitmapFilter"><feComponentTransfer id="feComponentTransfer57"><feFuncR amplitude="1.055" exponent=".416666666" id="feFuncR59" offset="-0.055" type="gamma"/><feFuncG amplitude="1.055" exponent=".416666666" id="feFuncG61" offset="-0.055" type="gamma"/><feFuncB amplitude="1.055" exponent=".416666666" id="feFuncB63" offset="-0.055" type="gamma"/></feComponentTransfer><feComponentTransfer id="feComponentTransfer65"><feFuncR id="feFuncR67" intercept="1" slope="-1" type="linear"/><feFuncG id="feFuncG69" intercept="1" slope="-1" type="linear"/><feFuncB id="feFuncB71" intercept="1" slope="-1" type="linear"/><feFuncA id="feFuncA73" intercept="0" slope="1" type="linear"/></feComponentTransfer><feComponentTransfer id="feComponentTransfer75"><feFuncR amplitude="1" exponent="2.4" id="feFuncR77" offset="0" type="gamma"/><feFuncG amplitude="1" exponent="2.4" id="feFuncG79" offset="0" type="gamma"/><feFuncB amplitude="1" exponent="2.4" id="feFuncB81" offset="0" type="gamma"/></feComponentTransfer></filter><radialGradient cx="0" cy="0" gradientTransform="matrix(0,-1,0.886054,0,172.174,122.358)" gradientUnits="userSpaceOnUse" id="RadialGradient" r="237.42799"><stop id="stop84" offset="0" stop-color="#473600"/><stop id="stop86" offset="0.792135000228882" stop-color="#3d2f00"/><stop id="stop88" offset="0.990000009536743" stop-color="#3a2c00"/><stop id="stop90" offset="1" stop-color="#3a2c00"/></radialGradient><radialGradient cx="0" cy="0" gradientTransform="matrix(0,-1,0.886054,0,170.916,119.88)" gradientUnits="userSpaceOnUse" id="RadialGradient_1" r="237.42799"><stop id="stop93" offset="0" stop-color="#553e00"/><stop id="stop95" offset="0.792135000228882" stop-color="#403200"/><stop id="stop97" offset="0.990000009536743" stop-color="#3b2b00"/><stop id="stop99" offset="1" stop-color="#3b2b00"/></radialGradient><radialGradient cx="0" cy="0" gradientTransform="matrix(0,-1,0.886054,0,169.66,117.403)" gradientUnits="userSpaceOnUse" id="RadialGradient_2" r="237.42799"><stop id="stop102" offset="0" stop-color="#634700"/><stop id="stop104" offset="0.792135000228882" stop-color="#443400"/><stop id="stop106" offset="0.990000009536743" stop-color="#3c2a00"/><stop id="stop108" offset="1" stop-color="#3c2a00"/></radialGradient><radialGradient cx="0" cy="0" gradientTransform="matrix(0,-1,0.886054,0,168.403,114.925)" gradientUnits="userSpaceOnUse" id="RadialGradient_3" r="237.42799"><stop id="stop111" offset="0" stop-color="#724f00"/><stop id="stop113" offset="0.792135000228882" stop-color="#473600"/><stop id="stop115" offset="0.990000009536743" stop-color="#3c2900"/><stop id="stop117" offset="1" stop-color="#3c2900"/></radialGradient><radialGradient cx="0" cy="0" gradientTransform="matrix(0,-1,0.886054,0,167.146,112.448)" gradientUnits="userSpaceOnUse" id="RadialGradient_4" r="237.42799"><stop id="stop120" offset="0" stop-color="#805800"/><stop id="stop122" offset="0.792135000228882" stop-color="#4b3800"/><stop id="stop124" offset="0.990000009536743" stop-color="#3d2800"/><stop id="stop126" offset="1" stop-color="#3d2800"/></radialGradient><radialGradient cx="0" cy="0" gradientTransform="matrix(0,-1,0.886054,0,165.889,109.97)" gradientUnits="userSpaceOnUse" id="RadialGradient_5" r="237.42799"><stop id="stop129" offset="0" stop-color="#8e6000"/><stop id="stop131" offset="0.792135000228882" stop-color="#4e3b00"/><stop id="stop133" offset="0.990000009536743" stop-color="#3e2700"/><stop id="stop135" offset="1" stop-color="#3e2700"/></radialGradient><radialGradient cx="0" cy="0" gradientTransform="matrix(0,-1,0.886054,0,164.632,107.493)" gradientUnits="userSpaceOnUse" id="RadialGradient_6" r="237.42799"><stop id="stop138" offset="0" stop-color="#9c6900"/><stop id="stop140" offset="0.792135000228882" stop-color="#523d00"/><stop id="stop142" offset="0.990000009536743" stop-color="#3f2600"/><stop id="stop144" offset="1" stop-color="#3f2600"/></radialGradient><linearGradient gradientTransform="translate(218.601,165.399)" gradientUnits="userSpaceOnUse" id="LinearGradient" x1="0" x2="42.75" y1="0" y2="36.75"><stop id="stop147" offset="0" stop-color="#5c5c5c"/><stop id="stop149" offset="1" stop-color="#000000"/></linearGradient><linearGradient gradientTransform="translate(181.122,157.792)" gradientUnits="userSpaceOnUse" id="LinearGradient_1" x1="0" x2="-9.6719999" y1="0" y2="-141.858"><stop id="stop152" offset="0" stop-color="#ffffff"/><stop id="stop154" offset="1" stop-color="#cfd1d2"/></linearGradient><linearGradient gradientTransform="translate(259.851,172.899)" gradientUnits="userSpaceOnUse" id="LinearGradient_2" x1="0" x2="69.75" y1="0" y2="-189.75"><stop id="stop157" offset="0" stop-color="#b5b5b5"/><stop id="stop159" offset="1" stop-color="#000000"/></linearGradient><linearGradient gradientTransform="translate(204.11,87.059)" gradientUnits="userSpaceOnUse" id="LinearGradient_3" x1="0" x2="-51.527" y1="0" y2="-64.410004"><stop id="stop162" offset="0" stop-color="#df9000"/><stop id="stop164" offset="0.730337023735046" stop-color="#7f5200"/><stop id="stop166" offset="0.990000009536743" stop-color="#3f2600"/><stop id="stop168" offset="1" stop-color="#3f2600"/></linearGradient><linearGradient gradientTransform="translate(199.945,96.333)" gradientUnits="userSpaceOnUse" id="LinearGradient_4" x1="0" x2="19.041" y1="0" y2="85.190002"><stop id="stop171" offset="0" stop-color="#ba7d00"/><stop id="stop173" offset="0.792135000228882" stop-color="#7f5200"/><stop id="stop175" offset="0.990000009536743" stop-color="#3f2600"/><stop id="stop177" offset="1" stop-color="#3f2600"/></linearGradient><linearGradient gradientTransform="translate(129.134,111.014)" gradientUnits="userSpaceOnUse" id="LinearGradient_5" x1="0" x2="-1.007" y1="0" y2="-63.535999"><stop id="stop180" offset="0" stop-color="#df9000"/><stop id="stop182" offset="0.792135000228882" stop-color="#7f5200"/><stop id="stop184" offset="0.990000009536743" stop-color="#3f2600"/><stop id="stop186" offset="1" stop-color="#3f2600"/></linearGradient><linearGradient gradientTransform="translate(129.286,104.867)" gradientUnits="userSpaceOnUse" id="LinearGradient_6" x1="0" x2="15.098" y1="0" y2="58.375"><stop id="stop189" offset="0" stop-color="#df9000"/><stop id="stop191" offset="0.792135000228882" stop-color="#7f5200"/><stop id="stop193" offset="0.990000009536743" stop-color="#3f2600"/><stop id="stop195" offset="1" stop-color="#3f2600"/></linearGradient><radialGradient cx="0" cy="0" gradientTransform="matrix(0.69735527,-0.71672563,1.2319152,1.1986212,183.351,196.899)" gradientUnits="userSpaceOnUse" id="RadialGradient_7" r="38.716999"><stop id="stop198" offset="0" stop-color="#6b4c29"/><stop id="stop200" offset="1" stop-color="#a57348"/></radialGradient><radialGradient cx="0" cy="0" gradientTransform="matrix(0,-1,0.973942,0,134.346,314.993)" gradientUnits="userSpaceOnUse" id="RadialGradient_8" r="120.999"><stop id="stop203" offset="0" stop-color="#e0bf9e"/><stop id="stop205" offset="1.68539006263018E-02" stop-color="#e0bf9e"/><stop id="stop207" offset="0.202246993780136" stop-color="#e6b891"/><stop id="stop209" offset="1" stop-color="#7b5d39"/></radialGradient><radialGradient cx="0" cy="0" gradientTransform="matrix(-0.01429027,-0.99989789,1.2061368,-0.01723778,146.601,370.899)" gradientUnits="userSpaceOnUse" id="RadialGradient_9" r="87.054001"><stop id="stop212" offset="0" stop-color="#9a9a9a"/><stop id="stop214" offset="1" stop-color="#313131"/></radialGradient><linearGradient gradientTransform="translate(213.351,257.649)" gradientUnits="userSpaceOnUse" id="LinearGradient_7" x1="0" x2="-54" y1="0" y2="-87"><stop id="stop217" offset="0" stop-color="#484848"/><stop id="stop219" offset="1" stop-color="#000000"/></linearGradient><linearGradient gradientTransform="translate(133.101,343.149)" gradientUnits="userSpaceOnUse" id="LinearGradient_8" x1="0" x2="10.5" y1="0" y2="-85.5"><stop id="stop222" offset="0" stop-color="#8d8d8d"/><stop id="stop224" offset="1" stop-color="#000000"/></linearGradient><linearGradient gradientTransform="translate(239.24,380.259)" gradientUnits="userSpaceOnUse" id="LinearGradient_9" x1="0" x2="3.5999999" y1="0" y2="-129"><stop id="stop227" offset="0" stop-color="#ffffff"/><stop id="stop229" offset="1" stop-color="#000000"/></linearGradient><linearGradient gradientTransform="translate(115.007,352.336)" gradientUnits="userSpaceOnUse" id="LinearGradient_10" x1="0" x2="108" y1="0" y2="-33.75"><stop id="stop232" offset="0" stop-color="#ffffff"/><stop id="stop234" offset="1" stop-color="#000000"/></linearGradient><linearGradient gradientTransform="translate(226.61,87.059)" gradientUnits="userSpaceOnUse" id="LinearGradient_11" x1="0" x2="-51.527" y1="0" y2="-64.410004"><stop id="stop237" offset="0" stop-color="#df9000"/><stop id="stop239" offset="0.730337023735046" stop-color="#7f5200"/><stop id="stop241" offset="0.990000009536743" stop-color="#3f2600"/><stop id="stop243" offset="1" stop-color="#3f2600"/></linearGradient></defs><g id="g3163" transform="matrix(0.64050449,0,0,0.64031522,0,25.600003)"><path d="M 12.491302,-22.486741 12.491302,-27.484905 9.9933745,-34.980486 9.9933745,-34.982152 11.020855,-34.982152 13.075817,-28.734447 13.192387,-28.734447 15.130778,-34.982152 16.238193,-34.982152 13.740265,-27.484905 13.740265,-22.486741 12.491302,-22.486741 z" id="path3165" style="fill:#000000;fill-opacity:1;fill-rule:evenodd;stroke:none"/><path d="M 16.914298,-23.11651 16.915964,-23.11651 C 16.464671,-23.533024 16.239858,-24.09615 16.239858,-24.804223 L 16.238193,-29.119305 C 16.238193,-29.764068 16.471333,-30.273881 16.934282,-30.660406 17.3939,-31.041932 18.018382,-31.233529 18.801066,-31.233529 19.515473,-31.233529 20.098323,-31.03027 20.551281,-30.627085 21.005903,-30.225566 21.234047,-29.705756 21.234047,-29.072656 L 21.234047,-24.770902 C 21.232382,-24.059497 21.010899,-23.499702 20.566268,-23.096517 20.119972,-22.691666 19.510477,-22.490073 18.732789,-22.486741 L 18.712806,-22.486741 C 17.965093,-22.490073 17.365591,-22.69833 16.914298,-23.11651 z M 19.652027,-24.171123 C 19.87351,-24.45935 19.985084,-24.859203 19.985084,-25.36735 L 19.985084,-28.441221 C 19.985084,-28.892722 19.871844,-29.264252 19.6437,-29.550813 19.417222,-29.839041 19.125797,-29.983988 18.769426,-29.983988 18.378084,-29.983988 18.06501,-29.847371 17.835201,-29.574138 17.603726,-29.299239 17.487156,-28.934373 17.487156,-28.474542 L 17.488822,-25.392341 C 17.488822,-24.88586 17.600396,-24.484341 17.826874,-24.186117 L 17.825209,-24.186117 C 18.051688,-23.887893 18.351439,-23.737948 18.724463,-23.736282 L 18.734455,-23.736282 C 19.124131,-23.737948 19.428879,-23.882895 19.652027,-24.171123 z" id="path3167" style="fill:#000000;fill-opacity:1;fill-rule:evenodd;stroke:none"/><path d="M 22.869357,-22.964899 C 22.612903,-23.218139 22.483011,-23.598 22.483011,-24.102814 L 22.483011,-31.233529 23.731975,-31.233529 23.741966,-24.369383 C 23.741966,-24.166124 23.788594,-24.021178 23.880185,-23.929545 23.97011,-23.841244 24.118321,-23.79626 24.324816,-23.79626 24.483018,-23.79626 25.705337,-24.02451 25.950134,-24.146132 26.193266,-24.266088 27.270705,-24.57764 27.478866,-24.762572 L 27.478866,-31.233529 28.727829,-31.233529 28.727829,-22.70666 27.480531,-22.70666 27.518832,-23.884561 C 27.114168,-23.538022 25.716994,-23.036539 25.28402,-22.856605 24.84605,-22.676671 24.418072,-22.585038 24.011742,-22.585038 23.505496,-22.585038 23.12248,-22.711659 22.869357,-22.964899 z" id="path3169" style="fill:#000000;fill-opacity:1;fill-rule:evenodd;stroke:none"/><path d="M 11.69363,-5.1514413 C 9.6486605,-5.1514413 7.8884544,-6.6059071 7.6752979,-8.5551912 L 7.6569798,-8.9000645 C 7.5420752,-10.307881 7.4921166,-11.710699 7.4954472,-13.115183 7.4921166,-14.519667 7.5420752,-15.922485 7.6569798,-17.32697 L 7.6752979,-17.673509 C 7.8884544,-19.621127 9.6503258,-21.078925 11.69363,-21.078925 14.251508,-21.178888 16.884323,-21.227204 19.562101,-21.227204 L 20.401405,-21.227204 C 23.079183,-21.227204 25.710333,-21.178888 28.273206,-21.078925 30.449734,-21.078925 32.311522,-19.4212 32.309857,-17.278654 L 32.433088,-15.21941 C 32.459733,-14.518001 32.47139,-13.816592 32.47139,-13.115183 32.473055,-12.412108 32.459733,-11.709033 32.433088,-11.007624 L 32.309857,-8.9517122 C 32.311522,-6.8074998 30.449734,-5.1514413 28.273206,-5.1514413 25.698676,-5.049812 23.054204,-5.0014964 20.368099,-5.0014964 L 19.600403,-5.0014964 C 16.910968,-5.0014964 14.26483,-5.049812 11.69363,-5.1514413 z M 28.248227,-6.4009824 C 29.851896,-6.4009824 31.062559,-7.5855473 31.062559,-8.9517122 L 31.064224,-9.0016939 C 31.175798,-10.369525 31.224091,-11.739022 31.220761,-13.113517 31.222426,-14.489678 31.175798,-15.860841 31.064224,-17.227006 L 31.062559,-17.278654 C 31.062559,-18.643153 29.851896,-19.829384 28.248227,-19.829384 25.678693,-19.931013 23.064195,-19.977663 20.401405,-19.977663 L 19.562101,-19.977663 C 16.899311,-19.977663 14.283148,-19.931013 11.71861,-19.829384 10.113275,-19.829384 8.9042782,-18.643153 8.9042782,-17.278654 L 8.9009476,-17.227006 C 8.7893735,-15.860841 8.7427455,-14.491344 8.7460761,-13.113517 8.7427455,-11.739022 8.7893735,-10.369525 8.9009476,-9.0016939 L 8.9042782,-8.9517122 C 8.9042782,-7.5855473 10.11161,-6.4009824 11.71861,-6.4009824 14.296471,-6.297687 16.925955,-6.2510375 19.600403,-6.2510375 L 20.368099,-6.2510375 C 23.039216,-6.2510375 25.667036,-6.297687 28.248227,-6.4009824 z" id="path3171" style="fill:#000000;fill-opacity:1;fill-rule:evenodd;stroke:none"/><path d="M 25.497177,-9.2632645 C 25.172446,-9.6114699 25.012579,-10.089628 25.012579,-10.697738 L 25.012579,-13.535029 C 25.012579,-14.086493 25.187434,-14.534662 25.54547,-14.879535 25.901841,-15.224408 26.36479,-15.397678 26.927656,-15.397678 27.50551,-15.397678 27.950141,-15.237737 28.259884,-14.917854 28.569627,-14.596306 28.722833,-14.138141 28.722833,-13.535029 L 28.722833,-11.927286 28.727829,-11.927286 28.722833,-11.92562 28.722833,-11.927286 26.311501,-11.927286 26.311501,-10.734391 C 26.311501,-10.402846 26.354798,-10.171264 26.436397,-10.042978 26.517996,-9.916358 26.662876,-9.8480497 26.861045,-9.8480497 27.070871,-9.8480497 27.219081,-9.9030295 27.30068,-10.011323 27.38561,-10.121283 27.427242,-10.362861 27.427242,-10.734391 L 27.427242,-11.174229 28.727829,-11.174229 28.727829,-10.697738 C 28.727829,-10.049642 28.566297,-9.5598222 28.251558,-9.2332755 27.935154,-8.9050627 27.463878,-8.7417893 26.8344,-8.7417893 26.268203,-8.7417893 25.825238,-8.915059 25.497177,-9.2632645 z M 15.813545,-9.1049893 C 15.665335,-9.2932535 15.590397,-9.5748167 15.590397,-9.9513451 L 15.590397,-15.239403 16.852683,-15.239403 16.852683,-10.389518 C 16.852683,-10.239573 16.880993,-10.131279 16.934282,-10.064637 16.987571,-9.9979946 17.0725,-9.9646735 17.190736,-9.9646735 17.283992,-9.9646735 17.402227,-10.006325 17.545441,-10.096292 17.685325,-10.186259 17.815217,-10.299551 17.935118,-10.437833 L 17.933453,-10.437833 17.933453,-15.239403 19.197404,-15.239403 19.197404,-8.913393 17.933453,-8.913393 17.933453,-9.6114699 C 17.700313,-9.3532314 17.458847,-9.1599691 17.207389,-9.0250187 16.9526,-8.8884022 16.709468,-8.823426 16.472998,-8.823426 16.179908,-8.823426 15.96009,-8.9167251 15.813545,-9.1049893 z M 22.241545,-8.975037 C 22.048372,-9.065004 21.870186,-9.2066186 21.701992,-9.399881 L 21.701992,-8.913393 20.428049,-8.913393 20.428049,-17.488577 21.701992,-17.488577 21.701992,-14.726258 C 21.871851,-14.922853 22.055033,-15.066133 22.244875,-15.167763 22.438048,-15.267726 22.631221,-15.32104 22.827725,-15.32104 23.225728,-15.32104 23.530475,-15.184423 23.741966,-14.912856 23.953457,-14.644621 24.056705,-14.251432 24.056705,-13.733289 L 24.056705,-10.222912 C 24.056705,-9.7730772 23.958453,-9.42987 23.76195,-9.1932902 23.562116,-8.9533783 23.277352,-8.8334224 22.900997,-8.8334224 22.654535,-8.8334224 22.434718,-8.8800719 22.241545,-8.975037 z M 12.716115,-8.913393 12.716115,-16.244034 11.242338,-16.244034 11.242338,-17.488577 15.61038,-17.488577 15.61038,-16.244034 14.136603,-16.244034 14.136603,-8.913393 12.716115,-8.913393 z M 22.647874,-9.9613414 C 22.721147,-10.049642 22.757783,-10.192923 22.757783,-10.396182 L 22.756118,-10.394516 22.756118,-13.661649 C 22.756118,-13.873238 22.711155,-14.036511 22.62123,-14.148137 22.531304,-14.256431 22.401412,-14.313076 22.229888,-14.313076 22.139962,-14.313076 22.051702,-14.293084 21.965107,-14.251432 21.875182,-14.208115 21.788587,-14.144805 21.701992,-14.056504 L 21.701992,-10.116285 C 21.80524,-10.011323 21.905157,-9.9396827 22.001744,-9.8946992 22.099995,-9.8463837 22.201578,-9.826391 22.308156,-9.826391 22.461362,-9.826391 22.574602,-9.8713745 22.647874,-9.9613414 z M 27.423911,-12.908592 27.423911,-13.548357 C 27.423911,-13.814926 27.380614,-14.004856 27.292354,-14.119814 27.205759,-14.23144 27.065875,-14.291418 26.874367,-14.291418 26.672868,-14.291418 26.527988,-14.23144 26.441393,-14.119814 26.354798,-14.004856 26.309836,-13.814926 26.309836,-13.548357 L 26.30817,-13.548357 26.30817,-12.908592 27.423911,-12.908592 z" id="path3173" style="fill:#000000;fill-opacity:1;fill-rule:evenodd;stroke:none"/><path d="M 0,-3.651992 0,-36.328324 C 0,-38.342584 1.6353097,-39.980316 3.6503044,-39.980316 L 36.318198,-39.980316 C 38.331527,-39.980316 39.968502,-38.342584 39.968502,-36.328324 L 39.968502,-3.651992 C 39.968502,-1.6360658 38.331527,0 36.318198,0 L 3.6503044,0 C 1.6353097,0 0,-1.6360658 0,-3.651992 z M 38.719538,-3.651992 38.719538,-36.328324 C 38.719538,-37.651172 37.640434,-38.730775 36.318198,-38.730775 L 3.6503044,-38.730775 C 2.326403,-38.730775 1.2489636,-37.651172 1.2489636,-36.328324 L 1.2489636,-3.651992 C 1.2489636,-2.3274785 2.326403,-1.2495411 3.6503044,-1.2495411 L 36.318198,-1.2495411 C 37.640434,-1.2495411 38.719538,-2.3274785 38.719538,-3.651992 z" id="path3175" style="fill:#000000;fill-opacity:1;fill-rule:evenodd;stroke:none"/></g></svg>