<?xml version="1.0" encoding="utf-8"?>
<!-- Svg Vector Icons : http://www.onlinewebfonts.com/icon -->
<!DOCTYPE svg PUBLIC "-//W3C//DTD SVG 1.1//EN" "http://www.w3.org/Graphics/SVG/1.1/DTD/svg11.dtd">
<svg version="1.1" xmlns="http://www.w3.org/2000/svg" xmlns:xlink="http://www.w3.org/1999/xlink" x="0px" y="0px" viewBox="0 0 1000 1000" enable-background="new 0 0 1000 1000" xml:space="preserve">
<metadata> Svg Vector Icons : http://www.onlinewebfonts.com/icon </metadata>
<g><g transform="matrix(1 0 0 -1 0 1008)"><path d="M490.2,231.1c-24.4-1.7-49.3,1-74.8,8.1c-25.5,7.1-47.9,16.3-67.2,27.6c-19.3,11.3-36.9,22.5-52.7,33.6c-15.9,11.1-28.1,20.8-36.6,29.3l-11.9,11.9c-3.4,3.4-8.1,8.5-14,15.3c-6,6.8-18.1,22.3-36.6,46.4c-18.4,24.1-36.6,49.9-54.4,77.4s-38.7,63.5-62.5,108C55.6,633.2,33.4,679.6,13,727.8c-2.3,5.7-3.3,10.2-3,13.6c0.3,3.4,1,6.2,2.1,8.5l1.7,2.6c5.1,6.2,14.7,9.4,28.9,9.4l139.5,1.7c4-0.6,7.9-1.7,11.9-3.4s6.8-3.1,8.5-4.3l2.6-1.7c5.1-4,9.1-9.4,11.9-16.2c6.8-17,14.6-34.7,23.4-53.2c8.8-18.4,16-32.5,21.7-42.1l7.7-14.5c15.9-32.9,31-58.7,45.5-77.4c14.5-18.7,26.2-30.2,35.3-34.4c9.1-4.3,17.3-4.4,24.7-0.4c1.7,1.1,4,3.8,6.8,8.1c2.8,4.3,6.2,18.4,10.2,42.5c4,24.1,5.1,54.9,3.4,92.3c-0.6,13.6-2.1,25.9-4.7,37c-2.6,11.1-4.7,18.9-6.4,23.4l-3.4,6.8c-9.6,12.5-24.1,19.6-43.4,21.3c-6.2,1.1-4,6.8,6.8,17c4.5,4.5,9.4,8.2,14.5,11.1c19.3,9.1,60.1,13,122.5,11.9c28.9,0,51.9-2.3,68.9-6.8c9.6-2.3,17-5.7,22.1-10.2c5.1-4.5,8.5-12,10.2-22.5s2.4-20.3,2.1-29.3c-0.3-9.1-0.9-24.2-1.7-45.5c-0.9-21.3-1.3-40.1-1.3-56.6c0-2.8-0.1-9.9-0.4-21.3c-0.3-11.3-0.3-19.7,0-25.1c0.3-5.4,0.9-12.2,1.7-20.4c0.8-8.2,2.8-15,6-20.4c3.1-5.4,6.9-9.5,11.5-12.3c4.5-2.8,10.2-2.8,17,0c6.8,2.8,17.7,13.3,32.7,31.5c15,18.1,32.7,44.5,53.2,79.1c20.4,35.2,38.6,73.4,54.4,114.8c1.1,3.4,2.8,6.4,5.1,8.9c2.3,2.6,4.3,4.4,6,5.5l1.7,1.7c0.6,0.6,1.4,1,2.6,1.3c1.1,0.3,3.4,0.7,6.8,1.3c3.4,0.6,6.8,0.6,10.2,0l147.1,0.9c13,1.7,23.8,1.4,32.3-0.9c8.5-2.3,13.6-5.1,15.3-8.5l3.4-5.1c7.9-21.5-17.6-71.4-76.5-149.7c-7.9-10.8-17.6-23.7-28.9-38.7s-19.4-25.2-24.2-30.6c-4.8-5.4-10.1-13.2-15.7-23.4c-5.7-10.2-9.4-16.4-11.1-18.7c-1.7-2.3-2.4-7.2-2.1-14.9c0.3-7.7,1.1-12.5,2.6-14.5s5.1-6.9,11.1-14.9s11.2-13.9,15.7-17.9c4.5-4,12.8-11.3,24.7-22.1c51-47.1,83.6-84.8,97.8-113.1c1.1-1.7,2.3-3.8,3.4-6.4c1.1-2.6,2.3-7.1,3.4-13.6c1.1-6.5,1-12.3-0.4-17.4c-1.4-5.1-5.7-9.8-12.8-14c-7.1-4.3-17.2-6.4-30.2-6.4l-130.1-1.7c-8.5-1.7-18.1-1-28.9,2.1c-10.8,3.1-19.6,6.9-26.4,11.5l-10.2,6c-12.5,8.5-27.8,23.4-45.9,44.7c-18.1,21.3-34.3,38.3-48.5,51c-14.2,12.8-26.4,17.4-36.6,14l-4.3-2.1c0,0-2.8-2.4-8.5-7.2c-5.7-4.8-9.2-9.8-10.6-14.9c-1.4-5.1-4.3-13.9-8.5-26.4c-4.3-12.5-5.5-25.7-3.8-39.6c0-5.1-0.6-9.8-1.7-14c-1.1-4.3-2.6-7.2-4.3-8.9l-1.7-2.6c-6.2-6.8-15-10.8-26.4-11.9H490.2z"/></g></g>
</svg>