<?xml version="1.0" encoding="utf-8"?>
<!-- Svg Vector Icons : http://www.onlinewebfonts.com/icon -->
<!DOCTYPE svg PUBLIC "-//W3C//DTD SVG 1.1//EN" "http://www.w3.org/Graphics/SVG/1.1/DTD/svg11.dtd">
<svg version="1.1" xmlns="http://www.w3.org/2000/svg" xmlns:xlink="http://www.w3.org/1999/xlink" x="0px" y="0px" viewBox="0 0 1000 1000" enable-background="new 0 0 1000 1000" xml:space="preserve">
<metadata> Svg Vector Icons : http://www.onlinewebfonts.com/icon </metadata>
<g><path d="M488.5,380.2c25.2,0,44.3-9.3,58-27.9c10.4-13.7,15.3-35.6,15.3-64.6V192c0-29-4.8-50.3-15.3-64c-13.7-18.5-32.9-27.8-58-27.8c-24.7,0-43.8,9.3-57.4,27.8c-10.4,13.7-15.3,35-15.3,64v95.7c0,29,4.9,50.3,15.3,64.6C444.7,370.9,463.8,380.2,488.5,380.2z M465,182.2c0-25.1,7.7-37.7,23.5-37.7c16.4,0,23.5,12.6,23.5,37.7v114.8c0,25.2-7.1,38.3-23.5,38.3c-15.9,0-23.5-13.1-23.5-38.3V182.2L465,182.2z M606.6,360c-2.8-8.2-4.3-21.3-4.3-41V103.5H652v200.7c0,11.5,0,18,0.6,19.2c1.1,7.7,4.9,12,11.5,12c9.8,0,20.2-7.7,31.1-23.5V103.5H745v272.9h-49.7v-30.1c-19.7,22.9-38.2,33.9-56.4,33.9C623,380.2,611.5,373.7,606.6,360z M795.9,690.9V716h-49.2v-25.1c0-24.6,8.2-37.2,24.6-37.2C787.6,653.7,795.9,666.3,795.9,690.9z M261,112.3C249,78.4,237,43.9,225.4,10h58.1l38.8,143.8L359.4,10h55.8l-66.2,218.2v148.2h-54.6V228.2C289.4,201.4,278.5,163.1,261,112.3L261,112.3z M891,516.4c-9.9-43.2-45.4-74.9-87.5-79.8c-100.7-11-202.4-11-303.6-11s-202.9,0-303,11c-42.5,4.9-77.6,36.6-88,79.8c-13.7,61.2-14.2,128-14.2,191.4c0,62.9,0,130.1,14.2,191.4c9.9,43.2,45.4,74.9,87.5,79.3C297.1,990,398.8,990,500,990c101.2,0,202.9,0,303.6-11.5c42-4.4,77.1-36.1,87.5-79.3c13.7-61.2,14.2-128.5,14.2-191.4C905.2,644.4,905.2,577.6,891,516.4L891,516.4z M326.1,571.7h-58.5v311.2h-54.7V571.7h-57.5v-51.4h170.6V571.7L326.1,571.7z M473.7,882.8H425v-29.5c-19.7,22.4-38.3,33.4-55.8,33.4c-15.8,0-27.3-6.6-31.7-20.2c-2.8-8.2-4.4-20.8-4.4-39.9V612.8h48.7v199.1c0,11.5,0,17.5,0.5,19.2c1.2,7.6,5,11.5,11.5,11.5c9.9,0,20.3-7.6,31.2-22.9V612.8h48.7V882.8z M659.7,801.9c0,25.2-1.2,43.2-5,54.6c-6,19.7-19.7,30.1-38.9,30.1c-17.5,0-34.5-9.9-50.9-30.1v26.3h-48.6V520.2H565v118.7c15.9-19.7,32.9-29.5,50.9-29.5c19.1,0,32.9,10.4,38.9,30.6c3.8,11,5,28.9,5,54.1V801.9z M844.5,757h-97.9v47.6c0,25.2,8.2,37.7,25.2,37.7c12,0,19.1-6.5,21.9-19.7c0.5-2.7,1.1-13.7,1.1-33.4h49.8v7.1c0,15.9,0,26.8-1.1,31.7c-1.2,10.9-5.5,20.8-11.5,29.5c-13.2,19.1-33.4,29-59,29c-25.7,0-44.9-9.3-59.1-27.9c-10.4-13.1-15.9-34.5-15.9-63.5v-94.6c0-29,5-49.8,15.3-63.5c14.2-18.6,33.4-27.9,58.6-27.9c24.7,0,43.8,9.3,57.9,27.9c9.9,13.7,14.8,34.4,14.8,63.5V757H844.5z M611,690.3v115.4c0,24.6-7.1,36.6-21.3,36.6c-8.2,0-16.4-3.8-24.7-12V665.7c8.2-8.2,16.4-12,24.7-12C603.9,653.7,611,666.3,611,690.3z"/></g>
</svg>